<svg id="Layer_1" enable-background="new 0 0 512 512" height="512" viewBox="0 0 512 512" width="512" xmlns="http://www.w3.org/2000/svg"><path d="m411.4429 0h-310.9141c-55.4316 0-100.5288 45.1094-100.5288 100.5566v310.9141c0 55.4316 45.0972 100.5293 100.5288 100.5293h310.9141c55.4472 0 100.5571-45.0977 100.5571-100.5293v-310.9141c0-55.4472-45.1099-100.5566-100.5571-100.5566z" fill="#f2b327"/><g fill="#fff"><path d="m364.6587 194.1792-16.9707 16.9707 32.8647 32.8643h-173.061v24h173.0505l-32.8518 32.8339 16.9659 16.9747 61.8398-61.8067z"/><path d="m305.5078 397.7231c0 1.2178-1.082 2.2861-2.3154 2.2861h-191.373c-1.2549 0-2.3154-1.0469-2.3154-2.2861v-283.417c0-1.2549 1.0605-2.3154 2.3154-2.3154h191.373c1.2334 0 2.3154 1.082 2.3154 2.3154v88.3584h24v-88.3584c0-14.5107-11.8052-26.3154-26.3154-26.3154h-191.373c-14.5103 0-26.3154 11.8047-26.3154 26.3154v283.417c0 14.4941 11.8052 26.2861 26.3154 26.2861h191.373c14.5103 0 26.3154-11.792 26.3154-26.2861v-88.3877h-24z"/></g></svg>